# xmcd
#
# Track frame offsets: 
#        182
#        11142
#        21572
#        33672
#        44072
#        54415
#        66857
#        75927
#        87182
#        98890
#        113777
#        130817
#        145392
#        161517
#        175582
#        205847
#        216452
#        229437
#        258710
#        267057
#        279642
#        298490
#        311107
#
# Disc length: 4358 seconds
#
# Revision: 45
# Processed by: cddbd v1.5.2PL0 Copyright (c) Steve Scherf et al.
# Submitted via: ExactAudioCopyFreeDBPlugin 1.0
#
DISCID=65110417
DTITLE=Eric Clapton - Crossroads 1 and 2 [box sets]
DYEAR=1988
DGENRE=Blues
TTITLE0=The Yardbirds - Boom Boom
TTITLE1=The Yardbirds - Honey in Your Hips
TTITLE2=The Yardbirds - Baby What's Wrong
TTITLE3=The Yardbirds - I Wish You Would
TTITLE4=The Yardbirds - A Certain Girl
TTITLE5=The Yardbirds - Good Morning Little Schoolgirl
TTITLE6=The Yardbirds - I Ain't Got You
TTITLE7=The Yardbirds - For Your Love
TTITLE8=The Yardbirds - Got to Hurry
TTITLE9=John Mayall and Eric Clapton - Lonely Years
TTITLE10=John Mayall and Eric Clapton - Bernard Jenkins
TTITLE11=John Mayall's Bluesbreakers - Hideaway
TTITLE12=John Mayall's Bluesbreakers - All Your Love
TTITLE13=John Mayall's Bluesbreakers - Ramblin' on My Mind
TTITLE14=John Mayall's Bluesbreakers - Have You Ever Loved A Woman (li
TTITLE14=ve)
TTITLE15=Cream - Wrapping Paper
TTITLE16=Cream - I Feel Free
TTITLE17=Cream - Spoonful
TTITLE18=Cream - Lawdy Mama (BBC)
TTITLE19=Cream - Strange Brew
TTITLE20=Cream - Sunshine of Your Love
TTITLE21=Cream - Tales of Brave Ulysses
TTITLE22=Cream - Steppin' Out (BBC)
EXTD=YEAR: 1988
EXTT0=
EXTT1=
EXTT2=
EXTT3=
EXTT4=
EXTT5=
EXTT6=
EXTT7=
EXTT8=
EXTT9=
EXTT10=
EXTT11=
EXTT12=
EXTT13=
EXTT14=
EXTT15=
EXTT16=
EXTT17=
EXTT18=
EXTT19=
EXTT20=
EXTT21=
EXTT22=
PLAYORDER=
